<svg xmlns="http://www.w3.org/2000/svg" viewBox="0 0 64 64" width="64" height="64">
  <path fill="#fff" d="M28 2.7C14.7 2.7 4 8 4 14.7v26.7c0 6.6 10.7 12 24 12s24-5.4 24-12V14.7c0-6.7-10.7-12-24-12z" />
  <path fill="#666" d="M28.1 53.3l.1-5.3h-.1c-5.7 0-10.9-1.1-14.6-3-2.9-1.4-4.1-2.9-4.1-3.7v-5.8C13.7 38.3 20.5 40 28 40h.2l.1-5.3H28c-5.7 0-10.9-1.1-14.6-3-2.9-1.4-4.1-2.9-4.1-3.7v-5.8c4.4 2.7 11.1 4.5 18.7 4.5 7.5 0 14.3-1.7 18.7-4.5V28H52V14.7c0-6.6-10.7-12-24-12S4 8 4 14.7v26.7C4 48 14.7 53.3 28.1 53.3c-.1 0 0 0 0 0zM13.4 11c3.7-1.8 8.9-3 14.6-3s10.9 1.1 14.6 3c2.9 1.4 4.1 2.9 4.1 3.7s-1.2 2.3-4.1 3.7c-3.7 1.8-8.9 3-14.6 3s-10.9-1.1-14.6-3c-2.9-1.4-4.1-2.9-4.1-3.7 0-.9 1.3-2.3 4.1-3.7z" />
  <path fill="#1d83d4" transform="translate(2.714633,-0.13203634)" d="m 41.985367,30.838419 c 2.060508,0 3.82464,0.324601 5.292399,0.973802 1.46776,0.6492 2.568578,1.510098 3.302457,2.58269 0.762106,1.072593 1.143159,2.25809 1.143159,3.556493 0,1.157271 -0.211697,2.145186 -0.635088,2.963744 -0.395166,0.818557 -0.889124,1.495984 -1.481872,2.032281 -0.592749,0.508071 -1.368967,1.086706 -2.328656,1.735906 -1.15727,0.762106 -2.018168,1.46776 -2.582691,2.116961 -0.564522,0.620974 -0.846783,1.439533 -0.846783,2.455673 v 0.889123 h -6.096845 v -1.100819 c 0,-1.326628 0.211697,-2.441561 0.635088,-3.344796 0.423393,-0.903237 0.931462,-1.623003 1.524211,-2.159299 0.592749,-0.564522 1.340742,-1.157271 2.243978,-1.778246 0.903235,-0.620976 1.552437,-1.143159 1.947602,-1.566551 0.423393,-0.451618 0.635088,-1.002028 0.635088,-1.651228 0,-0.762106 -0.310486,-1.354855 -0.931462,-1.778247 -0.620975,-0.423392 -1.439532,-0.635087 -2.455674,-0.635087 -0.959688,0 -1.89115,0.225808 -2.794386,0.677426 -0.903236,0.423393 -1.735907,1.05848 -2.498012,1.905264 l -4.23392,-3.302457 c 2.596803,-3.048422 5.983939,-4.572633 10.161407,-4.572633 z m -1.10082,21.673202 c 1.044368,0 1.947604,0.381053 2.70971,1.143159 0.762104,0.733879 1.143157,1.623001 1.143157,2.667369 0,1.044367 -0.381053,1.947602 -1.143157,2.709708 -0.73388,0.762106 -1.637117,1.143158 -2.70971,1.143158 -1.044366,0 -1.947602,-0.36694 -2.709708,-1.100818 -0.733879,-0.762106 -1.100819,-1.679455 -1.100819,-2.752048 0,-1.044368 0.36694,-1.93349 1.100819,-2.667369 0.762106,-0.762106 1.665342,-1.143159 2.709708,-1.143159 z" />
</svg>
